<?xml version="1.0" standalone="no"?>
<!DOCTYPE svg PUBLIC "-//W3C//DTD SVG 20010904//EN"
 "http://www.w3.org/TR/2001/REC-SVG-20010904/DTD/svg10.dtd">
<svg version="1.0" xmlns="http://www.w3.org/2000/svg"
 width="225.000000pt" height="225.000000pt" viewBox="0 0 225.000000 225.000000"
 preserveAspectRatio="xMidYMid meet">
<metadata>
Created by potrace 1.11, written by Peter Selinger 2001-2013
</metadata>
<g transform="translate(0.000000,225.000000) scale(0.100000,-0.100000)"
fill="#000000" stroke="none">
<path d="M966 1964 c-130 -31 -249 -114 -298 -206 -18 -34 -23 -59 -23 -124 0
-69 3 -85 25 -117 53 -79 177 -110 267 -66 71 34 98 125 51 169 -45 42 -147
16 -148 -37 -1 -15 -4 -14 -20 6 -41 48 -15 131 58 188 149 114 440 107 554
-14 35 -36 48 -73 48 -131 0 -86 -44 -131 -213 -218 -223 -114 -287 -185 -287
-316 0 -68 28 -98 90 -98 60 0 70 12 80 95 13 104 40 131 195 194 177 73 250
127 291 216 29 61 32 167 8 238 -33 98 -154 188 -295 222 -82 19 -302 19 -383
-1z"/>
<path d="M1034 906 c-46 -21 -74 -62 -74 -110 0 -72 51 -116 134 -116 56 0
112 43 121 94 8 42 -15 99 -49 121 -35 23 -95 28 -132 11z"/>
</g>
</svg>
